<?xml version="1.0" encoding="UTF-8"?>
<svg width="426px" height="449px" viewBox="0 0 426 449" version="1.1" xmlns="http://www.w3.org/2000/svg" xmlns:xlink="http://www.w3.org/1999/xlink">
    <title>CCC78B92-2C71-4827-AB87-7FE5D4D02156@1x</title>
    <g id="Instructional" stroke="none" stroke-width="1" fill="none" fill-rule="evenodd">
        <g id="Find-you-biller">
            <g id="Table_1_" transform="translate(17.000000, 0.000000)" fill-rule="nonzero">
                <path d="M42,28 L348,28 C356.28,28 363,34.72 363,43 L363,406 C363,414.28 356.28,421 348,421 L42,421 C33.72,421 27,414.28 27,406 L27,43 C27,34.72 33.72,28 42,28 Z" id="T_shadow_1_" fill="#EFEFEF"></path>
                <path d="M342,15 L342,434 C342,442.28 335.28,449 327,449 L15,449 C6.72,449 0,442.28 0,434 L0,15 C0,6.72 6.72,0 15,0 L327,0 C335.28,0 342,6.72 342,15 Z" id="T_outline_1_" fill="#D8D8D8"></path>
                <path d="M15,3 L327,3 C333.63,3 339,8.37 339,15 L339,434 C339,440.63 333.63,446 327,446 L15,446 C8.37,446 3,440.63 3,434 L3,15 C3,8.37 8.37,3 15,3 Z" id="T_bg_1_" fill="#FFFFFF"></path>
            </g>
            <g id="CTA_1_" transform="translate(93.500000, 378.000000)">
                <path d="M166,43 L20,43 C11,44 2,35.05 2,24 L2,24 C2,12.95 10.95,4 22,4 L168,4 C179.05,4 188,12.95 188,24 L188,24 C188,35.05 179.05,44 166,43 Z" id="cta_shadow_1_" fill="#DFB706"></path>
                <path d="M20,0 L166,0 C177.05,0 186,8.95 186,20 L186,20 C186,31.05 177.05,40 166,40 L20,40 C8.95,40 0,31.05 0,20 L0,20 C0,8.95 8.95,0 20,0 Z" id="cta_bg_1_" fill="#FFDD00" fill-rule="nonzero"></path>
            </g>
            <g id="Copy_1_" transform="translate(36.000000, 210.000000)" fill-rule="nonzero">
                <path d="M2,92 L94,92 C95.1,92 96,92.9 96,94 L96,110 C96,111.1 95.1,112 94,112 L2,112 C0.9,112 0,111.1 0,110 L0,94 C0,92.9 0.9,92 2,92 Z" id="Path" fill="#D8D8D8"></path>
                <path d="M170,129 L246,129 C247.1,129 248,129.9 248,131 L248,147 C248,148.1 247.1,149 246,149 L170,149 C168.9,149 168,148.1 168,147 L168,131 C168,129.9 168.9,129 170,129 Z" id="Path" fill="#2D4E9D"></path>
                <path d="M3,44 L257,44 C258.66,44 260,45.34 260,47 L260,47 C260,48.66 258.66,50 257,50 L3,50 C1.34,50 0,48.66 0,47 L0,47 C0,45.34 1.34,44 3,44 Z" id="Path" fill="#D8D8D8"></path>
                <path d="M3,62 L177,62 C178.66,62 180,63.34 180,65 L180,65 C180,66.66 178.66,68 177,68 L3,68 C1.34,68 0,66.66 0,65 L0,65 C0,63.34 1.34,62 3,62 Z" id="Path" fill="#D8D8D8"></path>
                <path d="M59,136 L153,136 C154.66,136 156,137.34 156,139 L156,139 C156,140.66 154.66,142 153,142 L59,142 C57.34,142 56,140.66 56,139 L56,139 C56,137.34 57.34,136 59,136 Z" id="Path" fill="#D8D8D8"></path>
                <path d="M2,0 L94,0 C95.1,0 96,0.9 96,2 L96,18 C96,19.1 95.1,20 94,20 L2,20 C0.9,20 0,19.1 0,18 L0,2 C0,0.9 0.9,0 2,0 Z" id="Path" fill="#D8D8D8"></path>
            </g>
            <g id="Highlight_1_" transform="translate(0.000000, 33.535240)">
                <path d="M356,43.4647603 L187.94,43.4647603 C161.19,11.1947603 113.34,6.71476028 81.07,33.4647603 C77.43,36.4747603 74.09,39.8247603 71.07,43.4647603 L35,43.4647603 C29.13,43.4747603 23.59,46.1947603 20,50.8447603 L20,134.08476 C23.59,138.73476 29.13,141.45476 35,141.46476 L71.88,141.46476 C99.1,173.29476 146.97,177.02476 178.8,149.79476 C181.79,147.23476 184.58,144.45476 187.13,141.46476 L356,141.46476 L356,43.4647603 Z" id="H_shadow_1_" fill="#EFEFEF"></path>
                <path d="M411,27.4647603 L171.94,27.4647603 C145.19,-4.80523972 97.34,-9.28523972 65.07,17.4647603 C61.43,20.4747603 58.09,23.8247603 55.07,27.4647603 L15,27.4647603 C6.72,27.4647603 0,34.1847603 0,42.4647603 L0,42.4647603 L0,110.46476 C0,118.74476 6.72,125.46476 15,125.46476 L15,125.46476 L55.88,125.46476 C83.1,157.29476 130.97,161.02476 162.8,133.79476 C165.79,131.23476 168.58,128.45476 171.13,125.46476 L411,125.46476 C419.28,125.46476 426,118.74476 426,110.46476 L426,110.46476 L426,42.4647603 C426,34.1847603 419.28,27.4647603 411,27.4647603 L411,27.4647603 Z" id="H_outline_1_" fill="#2D4E9D"></path>
                <path d="M15,30.4647603 L411,30.4647603 C417.63,30.4647603 423,35.8347603 423,42.4647603 L423,110.46476 C423,117.09476 417.63,122.46476 411,122.46476 L15,122.46476 C8.37,122.46476 3,117.09476 3,110.46476 L3,42.4647603 C3,35.8347603 8.37,30.4647603 15,30.4647603 Z" id="H_bg_1_" fill="#FFFFFF" fill-rule="nonzero"></path>
                <path d="M217,60.4647603 L389,60.4647603 C391.21,60.4647603 393,62.2547603 393,64.4647603 L393,88.4647603 C393,90.6747603 391.21,92.4647603 389,92.4647603 L217,92.4647603 C214.79,92.4647603 213,90.6747603 213,88.4647603 L213,64.4647603 C213,62.2547603 214.79,60.4647603 217,60.4647603 Z" id="Path" fill="#D8D8D8" fill-rule="nonzero"></path>
                <path d="M113.5,149.00476 C73.18,149.00476 40.5,116.32476 40.5,76.0047603 C40.5,35.6847603 73.18,3.00476028 113.5,3.00476028 C153.82,3.00476028 186.5,35.6847603 186.5,76.0047603 C186.46,116.30476 153.8,148.96476 113.5,149.00476 Z" id="Path" fill="#D8D8D8"></path>
                <circle id="Oval" fill="#FFFFFF" fill-rule="nonzero" cx="113.51" cy="76.0047603" r="70"></circle>
                <g id="Magnifier" transform="translate(74.626439, 29.965340)" fill-rule="nonzero">
                    <path d="M74.3135613,84.58942 L43.7035613,43.58942 L39.0835613,47.03942 L69.6935613,88.03942 C73.2135613,88.86942 74.4235613,88.36942 74.3135613,84.58942" id="Path" fill="#4E5052"></path>
                    <path d="M6.00356132,42.60942 C-3.17643868,31.56942 -1.65643868,15.16942 9.38356132,5.99942005 C20.4235613,-3.17057995 36.8235613,-1.66057995 45.9935613,9.37942005 C55.1635613,20.41942 53.6535613,36.81942 42.6135613,45.98942 C42.6035613,45.99942 42.5935613,46.00942 42.5835613,46.01942 C31.5435613,55.15942 15.1735613,53.63942 6.00356132,42.60942 M40.6535613,43.69942 C50.4435613,35.59942 51.8135613,21.10942 43.7135613,11.31942 C35.6135613,1.52942005 21.1235613,0.159420046 11.3335613,8.25942005 C1.54356132,16.35942 0.173561321,30.84942 8.27356132,40.63942 C8.29356132,40.65942 8.30356132,40.67942 8.32356132,40.69942 C16.4335613,50.42942 30.8935613,51.76942 40.6535613,43.69942" id="Shape" fill="#4E5052"></path>
                    <path d="M75.8735613,90.51942 L75.0235613,91.15942 C72.9635613,92.70942 70.0435613,92.28942 68.4935613,90.23942 C68.4935613,90.23942 68.4935613,90.23942 68.4935613,90.22942 L42.3735613,55.41942 C41.8435613,54.72942 41.9835613,53.74942 42.6735613,53.21942 C42.6735613,53.21942 42.6835613,53.20942 42.6835613,53.20942 L48.4735613,48.86942 C49.1735613,48.34942 50.1635613,48.48942 50.6835613,49.18942 L76.8035613,83.99942 C78.3435613,86.04942 77.9335613,88.96942 75.8835613,90.50942 C75.8835613,90.50942 75.8835613,90.50942 75.8735613,90.51942" id="Path" fill="#AE151B"></path>
                    <path d="M75.8735613,90.51942 L46.0035613,50.71942 L42.7035613,53.18942 C42.0035613,53.70942 41.8635613,54.68942 42.3835613,55.38942 C42.3835613,55.38942 42.3935613,55.39942 42.3935613,55.39942 L68.5135613,90.20942 C70.0535613,92.26942 72.9735613,92.68942 75.0335613,91.13942 C75.0335613,91.13942 75.0335613,91.13942 75.0435613,91.13942 L75.8735613,90.51942 Z" id="Path" fill="#E30413"></path>
                </g>
            </g>
        </g>
    </g>
</svg>